# xmcd
#
# Track frame offsets: 
#        150
#        10997
#        29236
#        56384
#        79041
#        99847
#        116537
#        133581
#        151691
#        171219
#        188654
#        202522
#        224152
#
# Disc length: 3203 seconds
#
# Revision: 0
# Processed by: cddbd v1.5.2PL0 Copyright (c) Steve Scherf et al.
# Submitted via: ExactAudioCopy v0.95b4
#
DISCID=a30c810d
DTITLE=Larry Miller - fearless
DYEAR=2005
DGENRE=Blues Rock
TTITLE0=Moll Moll Moll
TTITLE1=Rory
TTITLE2=Dead Man Walking
TTITLE3=Emergency
TTITLE4=Doctor In the House
TTITLE5=Somethings Missing
TTITLE6=Took the Bullet
TTITLE7=I´ll Be Your Bear
TTITLE8=Missy Mango
TTITLE9=Sinking Sand
TTITLE10=Yours and No Other
TTITLE11=To Stand Where She Stands
TTITLE12=Beach Buggy Baby
EXTD=
EXTT0=
EXTT1=
EXTT2=
EXTT3=
EXTT4=
EXTT5=
EXTT6=
EXTT7=
EXTT8=
EXTT9=
EXTT10=
EXTT11=
EXTT12=
PLAYORDER=
